<?xml version="1.0" standalone="no"?>
<!DOCTYPE svg PUBLIC "-//W3C//DTD SVG 20010904//EN"
 "http://www.w3.org/TR/2001/REC-SVG-20010904/DTD/svg10.dtd">
<svg version="1.0" xmlns="http://www.w3.org/2000/svg"
 width="3474.000000pt" height="5070.000000pt" viewBox="0 0 3474.000000 5070.000000"
 preserveAspectRatio="xMidYMid meet">
<metadata>
Created by potrace 1.16, written by Peter Selinger 2001-2019
</metadata>
<g transform="translate(0.000000,5070.000000) scale(0.100000,-0.100000)"
fill="#000000" stroke="none">
<path d="M11815 49634 c-44 -14 -161 -49 -260 -79 -99 -29 -1429 -425 -2955
-880 -1526 -455 -2869 -855 -2985 -889 -2294 -683 -3522 -1050 -3528 -1056 -7
-6 218 -757 354 -1179 247 -768 530 -2012 729 -3210 180 -1081 282 -2006 342
-3096 17 -313 17 -1489 0 -1775 -103 -1701 -421 -2939 -998 -3893 -248 -410
-579 -793 -911 -1057 l-133 -105 0 -15447 0 -15448 15825 0 15825 0 0 15448 0
15447 -127 102 c-1062 845 -1697 2339 -1888 4438 -154 1707 -16 3780 406 6055
173 934 421 1976 601 2530 105 324 366 1186 360 1191 -4 3 -704 216 -1557 474
-852 257 -2850 860 -4440 1340 -1589 480 -3072 928 -3294 995 -257 78 -406
118 -410 111 -4 -5 -19 -101 -35 -213 -28 -208 -174 -1203 -202 -1383 -9 -55
-67 -280 -129 -501 -111 -392 -117 -408 -260 -749 -200 -479 -369 -794 -598
-1115 l-161 -225 -325 -285 -326 -286 -205 -109 c-162 -86 -260 -130 -465
-207 -233 -88 -300 -109 -655 -197 -356 -90 -426 -104 -714 -146 -418 -60
-731 -79 -1351 -79 -654 0 -928 17 -1395 89 -325 49 -402 65 -705 142 -456
116 -768 231 -1079 395 l-210 111 -339 301 -338 301 -151 215 c-140 199 -166
244 -349 600 -179 348 -209 415 -318 700 -105 273 -133 358 -207 637 -82 313
-87 337 -155 790 -38 258 -92 628 -120 823 -57 407 -55 400 -72 399 -6 0 -48
-11 -92 -25z m75 -27 c0 -11 121 -846 176 -1212 63 -422 69 -453 150 -758 73
-274 102 -362 209 -642 114 -297 141 -357 321 -707 182 -353 208 -398 350
-601 l153 -219 342 -303 342 -304 208 -110 c310 -165 624 -281 1070 -396 297
-77 376 -93 710 -145 341 -53 405 -60 695 -76 423 -24 1032 -24 1459 0 272 15
369 25 645 66 288 43 369 59 709 144 342 86 412 107 648 196 213 81 305 122
473 211 l209 111 330 290 331 290 158 222 c228 319 401 642 603 1124 146 348
149 358 263 760 l114 407 61 405 c33 223 67 461 75 530 9 69 24 175 35 235 11
61 27 164 35 230 25 183 37 255 44 255 6 0 272 -80 4177 -1260 1381 -417 3169
-957 3975 -1200 806 -244 1466 -444 1468 -445 2 -2 -81 -274 -184 -606 -265
-855 -268 -865 -345 -1159 -341 -1286 -634 -2929 -779 -4365 -120 -1198 -146
-2388 -75 -3365 150 -2032 686 -3516 1607 -4442 121 -121 315 -289 376 -325
23 -14 44 -35 47 -46 3 -12 4 -6655 3 -14762 l-3 -14740 -142 -3 c-135 -2
-143 -4 -143 -22 0 -19 7 -20 145 -20 l145 0 0 -645 0 -645 -15785 0 -15785 0
0 655 0 655 145 0 c138 0 145 1 145 20 0 19 -7 20 -145 20 l-145 0 0 14743 c0
11780 3 14746 13 14758 6 8 31 27 54 42 122 78 427 372 594 572 778 936 1236
2347 1364 4205 29 423 38 794 32 1315 -8 611 -26 988 -77 1595 -128 1502 -433
3284 -810 4720 -80 307 -112 413 -365 1233 -104 334 -186 609 -184 611 2 2
722 218 1599 479 3248 967 7524 2242 7825 2332 292 88 335 100 335 92z"/>
<path d="M11097 48403 c-2 -5 12 -113 32 -241 l35 -233 25 6 c14 4 27 8 29 9
2 3 -53 382 -64 439 -4 20 -11 27 -29 27 -13 0 -26 -3 -28 -7z"/>
<path d="M10710 48321 c-102 -31 -199 -61 -217 -66 -29 -9 -31 -12 -20 -36
l12 -27 223 67 c123 37 223 70 223 74 -1 4 -1 16 -1 27 0 13 -6 20 -17 19 -10
-1 -101 -27 -203 -58z"/>
<path d="M23816 48335 c-4 -15 -6 -28 -4 -30 2 -1 104 -32 227 -70 230 -69
241 -70 241 -25 0 13 -185 74 -441 147 -11 3 -19 -4 -23 -22z"/>
<path d="M23472 47963 c-17 -120 -33 -227 -35 -238 -1 -15 5 -21 25 -23 22 -3
27 2 32 25 12 56 67 435 64 438 -2 2 -14 6 -28 10 l-25 6 -33 -218z"/>
<path d="M9755 48036 c-110 -34 -206 -64 -213 -66 -10 -4 -11 -12 -3 -31 l9
-26 227 68 c125 37 228 69 230 71 9 10 -17 48 -32 47 -10 -1 -108 -29 -218
-63z"/>
<path d="M24747 48053 c-3 -16 -5 -29 -4 -29 1 -1 103 -32 225 -69 225 -68
248 -70 240 -29 -2 15 -50 32 -228 86 -124 37 -226 68 -226 68 -1 0 -4 -12 -7
-27z"/>
<path d="M8830 47760 c-222 -67 -242 -76 -221 -109 8 -12 47 -3 226 50 119 35
221 67 227 70 7 4 7 16 2 32 l-9 25 -225 -68z"/>
<path d="M25684 47784 c-2 -8 -6 -20 -8 -28 -3 -9 55 -31 213 -79 119 -36 222
-67 230 -69 8 -2 17 9 21 24 8 27 7 28 -63 49 -40 12 -143 43 -230 69 -125 38
-159 45 -163 34z"/>
<path d="M7890 47480 c-195 -59 -225 -70 -222 -86 2 -11 7 -23 11 -27 4 -4
110 22 234 59 211 63 227 69 221 88 -3 12 -9 24 -13 27 -3 4 -107 -24 -231
-61z"/>
<path d="M26614 47493 c-4 -13 -4 -27 0 -30 4 -4 106 -37 227 -74 l220 -67 10
26 c5 13 8 26 6 28 -2 2 -105 34 -230 72 l-227 69 -6 -24z"/>
<path d="M11294 47452 c-21 -7 -20 -11 36 -222 32 -118 61 -222 65 -231 6 -17
40 -16 50 1 3 4 -17 90 -45 191 -27 101 -54 203 -60 227 -6 23 -14 42 -18 41
-4 -1 -16 -4 -28 -7z"/>
<path d="M6953 47202 c-220 -66 -222 -67 -216 -92 3 -14 7 -26 8 -28 3 -3 448
128 454 134 6 5 -9 54 -17 53 -4 0 -107 -31 -229 -67z"/>
<path d="M23240 47043 c-29 -103 -59 -205 -67 -226 -17 -42 -17 -42 14 -51 16
-5 25 -2 33 14 10 19 131 433 127 437 -1 1 -14 4 -28 8 l-26 6 -53 -188z"/>
<path d="M27545 47209 c-4 -12 -3 -24 2 -29 8 -7 445 -141 449 -137 1 1 5 14
9 28 6 25 6 25 -217 92 -123 37 -226 67 -230 67 -4 0 -10 -9 -13 -21z"/>
<path d="M6017 46923 l-218 -66 6 -26 c4 -14 7 -27 8 -28 2 -2 449 129 455
133 8 5 -12 54 -22 53 -6 0 -109 -30 -229 -66z"/>
<path d="M28476 46928 c-3 -13 -2 -26 2 -29 4 -4 106 -37 226 -73 224 -67 235
-68 236 -25 0 11 -56 32 -223 82 -122 37 -225 67 -228 67 -4 0 -9 -10 -13 -22z"/>
<path d="M5090 46646 c-113 -34 -210 -64 -217 -67 -8 -3 -8 -10 0 -30 l12 -26
145 44 c335 101 308 90 302 118 -2 15 -11 25 -21 24 -9 0 -108 -29 -221 -63z"/>
<path d="M29411 46648 c-5 -13 -6 -26 -2 -30 12 -13 445 -138 452 -131 4 5 9
17 11 27 3 17 -25 27 -222 87 -124 38 -226 69 -228 69 -1 0 -7 -10 -11 -22z"/>
<path d="M11603 46529 c-13 -4 -23 -10 -23 -13 0 -2 20 -56 45 -119 49 -127
141 -317 153 -317 5 0 16 6 26 13 17 12 15 20 -33 115 -28 55 -69 150 -92 209
-22 59 -44 111 -47 114 -4 4 -17 3 -29 -2z"/>
<path d="M4162 46369 c-123 -37 -225 -69 -227 -71 -8 -8 8 -48 19 -48 6 0 108
29 226 64 216 64 235 74 213 109 -6 10 -54 -1 -231 -54z"/>
<path d="M30346 46374 c-3 -9 -6 -21 -6 -28 0 -13 445 -154 455 -145 2 3 6 15
7 28 3 21 -11 27 -222 92 -124 38 -226 69 -226 69 -1 0 -5 -7 -8 -16z"/>
<path d="M22916 46203 c-27 -65 -71 -161 -97 -213 l-49 -95 22 -17 c22 -16 23
-15 57 45 48 85 170 370 162 378 -3 4 -15 10 -27 13 -18 5 -25 -7 -68 -111z"/>
<path d="M3357 46130 c-49 -16 -91 -31 -94 -33 -3 -3 17 -73 43 -156 35 -111
52 -151 63 -151 41 1 41 13 1 140 -22 68 -36 127 -32 130 4 4 35 15 70 25 34
10 62 21 62 24 -1 17 -13 51 -19 50 -3 0 -46 -14 -94 -29z"/>
<path d="M31163 45854 c-40 -125 -71 -229 -70 -230 1 -1 13 -5 27 -9 25 -6 26
-3 97 221 40 125 71 229 70 230 -1 1 -13 5 -27 9 -25 6 -26 3 -97 -221z"/>
<path d="M12018 45649 c-16 -9 -12 -20 38 -122 54 -107 177 -297 193 -297 4 0
15 6 25 13 18 13 14 21 -55 123 -41 60 -94 151 -119 202 -24 50 -49 92 -55 92
-5 0 -18 -5 -27 -11z"/>
<path d="M22512 45426 c-6 -13 -62 -95 -124 -182 -63 -88 -117 -164 -121 -170
-4 -7 4 -19 17 -28 l24 -15 119 166 c65 92 126 181 136 199 17 32 16 34 -2 44
-29 15 -37 13 -49 -14z"/>
<path d="M3505 45311 c-3 -5 21 -111 52 -235 59 -229 64 -241 101 -217 11 7 3
51 -43 227 -31 120 -59 222 -61 226 -7 11 -42 10 -49 -1z"/>
<path d="M30955 45137 c-3 -7 -29 -111 -59 -232 l-54 -220 25 -9 c13 -4 26 -6
28 -4 8 8 115 450 110 457 -8 15 -46 20 -50 8z"/>
<path d="M12557 44842 c-9 -10 -17 -21 -17 -24 0 -3 79 -76 176 -163 l177
-157 21 21 c20 21 20 21 1 39 -16 15 -145 129 -321 284 -20 18 -21 18 -37 0z"/>
<path d="M21763 44544 c-98 -86 -179 -157 -180 -158 -1 -1 7 -12 16 -25 l19
-24 163 143 c223 195 201 171 179 198 l-18 22 -179 -156z"/>
<path d="M3752 44373 c-13 -3 -21 -10 -19 -16 3 -7 26 -112 53 -235 l49 -223
25 6 c14 4 26 8 28 10 2 1 -20 104 -48 229 -27 125 -50 229 -50 231 0 3 -3 4
-7 4 -5 -1 -18 -4 -31 -6z"/>
<path d="M13284 44189 c-19 -21 -18 -21 40 -73 35 -30 119 -83 205 -128 l146
-77 13 25 c8 14 12 27 10 28 -2 2 -69 38 -149 80 -81 42 -153 83 -159 92 -7 8
-30 28 -50 44 l-37 30 -19 -21z"/>
<path d="M30730 44199 c0 -2 -22 -107 -49 -234 -51 -235 -51 -244 -10 -245 13
0 23 32 48 153 18 83 41 189 51 235 14 65 15 82 5 82 -7 0 -20 3 -29 6 -9 3
-16 5 -16 3z"/>
<path d="M21045 43993 c-281 -151 -267 -141 -254 -166 7 -12 13 -23 14 -25 2
-3 414 215 423 223 8 7 -19 45 -31 44 -7 0 -75 -34 -152 -76z"/>
<path d="M14132 43725 c-10 -22 -9 -27 6 -32 350 -136 427 -161 440 -145 6 8
12 21 12 26 0 8 -294 125 -436 173 -6 2 -16 -8 -22 -22z"/>
<path d="M20200 43622 c-63 -24 -162 -57 -220 -72 -100 -25 -105 -28 -102 -51
2 -13 5 -25 7 -27 13 -14 455 129 455 147 -1 17 -13 51 -19 50 -3 -1 -58 -22
-121 -47z"/>
<path d="M15064 43444 c-2 -8 -6 -20 -8 -28 -7 -21 437 -127 464 -111 6 3 10
17 10 29 0 21 -6 24 -57 31 -32 4 -136 26 -231 50 -139 34 -174 40 -178 29z"/>
<path d="M3963 43422 c-13 -2 -23 -9 -23 -15 -1 -7 18 -113 41 -238 l42 -225
29 4 c25 4 28 8 24 31 -3 14 -22 112 -41 216 -43 229 -43 231 -72 227z"/>
<path d="M19285 43379 c-58 -16 -311 -59 -346 -59 -5 0 -9 -13 -9 -30 0 -16 2
-30 4 -30 26 0 294 44 340 56 142 36 134 32 128 59 -5 30 -20 31 -117 4z"/>
<path d="M16441 43272 c-75 -37 -60 -103 35 -152 41 -21 50 -30 52 -56 2 -19
-3 -36 -13 -44 -18 -15 -69 -19 -102 -7 -17 6 -23 5 -23 -6 0 -19 22 -27 74
-27 73 0 116 49 94 110 -8 23 -25 38 -69 61 -52 26 -59 33 -59 59 0 37 29 54
81 47 48 -6 55 17 8 27 -42 8 -39 8 -78 -12z"/>
<path d="M17290 43270 c0 -6 32 -10 75 -10 44 0 75 -4 75 -10 0 -6 -36 -63
-80 -127 -44 -64 -80 -122 -80 -130 0 -10 24 -13 105 -13 87 0 105 3 105 15 0
12 -16 15 -86 15 l-85 0 85 124 c47 69 86 129 86 135 0 7 -36 11 -100 11 -60
0 -100 -4 -100 -10z"/>
<path d="M30497 43023 c-22 -120 -41 -225 -43 -234 -3 -12 4 -19 22 -23 14 -4
28 -6 29 -4 8 8 84 461 80 469 -4 5 -16 9 -28 9 -21 0 -24 -12 -60 -217z"/>
<path d="M16648 43193 c-10 -2 -18 -11 -18 -19 0 -11 5 -11 24 -3 32 15 73 4
81 -21 9 -29 -2 -40 -39 -40 -69 0 -113 -73 -68 -113 24 -22 70 -22 94 -1 16
16 18 16 24 0 3 -9 13 -16 21 -16 10 0 13 6 9 16 -3 9 -6 49 -6 90 0 61 -4 78
-20 94 -19 19 -60 24 -102 13z"/>
<path d="M16989 43171 c-25 -25 -29 -37 -29 -81 0 -44 4 -56 30 -81 26 -27 35
-30 81 -27 31 2 54 8 57 15 3 10 -8 11 -40 7 -52 -7 -98 22 -98 63 0 24 1 25
75 21 l75 -3 0 33 c0 77 -93 110 -151 53z"/>
<path d="M17584 43190 c-35 -14 -54 -50 -54 -103 0 -66 38 -107 100 -107 33 0
48 6 71 29 25 25 29 37 29 81 0 44 -4 56 -29 81 -31 30 -73 37 -117 19z m86
-28 c15 -12 24 -33 27 -64 5 -40 2 -50 -20 -72 -14 -14 -35 -26 -47 -26 -11 0
-33 12 -47 26 -22 22 -25 32 -20 72 5 49 33 82 67 82 10 0 28 -8 40 -18z"/>
<path d="M17790 43090 c0 -91 3 -110 15 -110 12 0 15 14 15 68 0 82 15 116 54
120 50 6 66 -20 66 -110 0 -63 3 -78 15 -78 12 0 15 16 15 85 0 78 -2 88 -25
110 -30 30 -64 32 -99 4 l-26 -20 0 20 c0 12 -6 21 -15 21 -12 0 -15 -19 -15
-110z"/>
<path d="M18083 43190 c-30 -12 -53 -60 -53 -110 0 -33 6 -48 30 -71 26 -27
35 -30 81 -27 29 2 54 8 56 14 3 8 -10 10 -41 7 -38 -5 -48 -2 -71 21 -44 45
-31 61 53 64 l72 3 0 30 c0 59 -64 94 -127 69z"/>
<path d="M4133 42462 c-13 -2 -23 -7 -23 -12 0 -5 16 -109 35 -230 19 -121 35
-224 35 -229 0 -4 13 -6 30 -3 24 3 29 8 25 26 -2 11 -19 116 -36 231 -18 116
-35 212 -38 216 -3 3 -16 3 -28 1z"/>
<path d="M30370 42277 c0 -1 -16 -106 -34 -232 -27 -174 -32 -231 -23 -237 19
-12 47 -9 47 5 0 6 15 112 34 234 18 123 30 225 28 228 -6 5 -52 7 -52 2z"/>
<path d="M4254 41468 c3 -18 15 -109 26 -203 30 -254 28 -245 54 -245 38 0 39
-34 -10 348 l-16 132 -30 0 c-29 0 -30 -2 -24 -32z"/>
<path d="M30235 41306 c-2 -6 -13 -101 -25 -211 -12 -110 -23 -212 -26 -226
-4 -23 -1 -27 23 -32 15 -3 29 -5 29 -4 2 2 54 459 54 468 0 12 -52 17 -55 5z"/>
<path d="M4363 40503 c3 -16 13 -124 23 -240 l18 -213 28 0 c33 0 32 -16 13
205 -25 290 -22 275 -57 275 -28 0 -30 -2 -25 -27z"/>
<path d="M30122 40212 c-7 -75 -15 -182 -18 -238 l-7 -101 27 -5 c14 -3 26 -5
27 -4 2 4 38 470 36 472 -1 0 -14 4 -28 7 l-26 7 -11 -138z"/>
<path d="M4444 39453 c3 -60 9 -168 12 -240 l7 -133 29 0 30 0 -6 73 c-3 39
-9 147 -12 240 l-7 167 -30 0 -30 0 7 -107z"/>
<path d="M30066 39318 c-3 -29 -8 -137 -12 -240 l-6 -188 31 0 31 0 0 73 c0
41 3 149 7 240 l6 167 -26 0 c-24 0 -26 -4 -31 -52z"/>
<path d="M4470 38350 l0 -240 30 0 30 0 0 240 0 240 -30 0 -30 0 0 -240z"/>
<path d="M30040 38318 c0 -46 3 -154 7 -240 l6 -158 30 0 c29 0 29 1 23 38 -3
20 -6 128 -6 240 l0 202 -30 0 -30 0 0 -82z"/>
<path d="M4455 37473 c-4 -76 -10 -182 -14 -235 -6 -96 -6 -97 18 -103 13 -3
25 -4 27 -2 4 4 13 128 29 390 l5 87 -29 0 -29 0 -7 -137z"/>
<path d="M30081 37421 c-11 -7 -12 -36 -2 -177 21 -305 19 -294 54 -294 27 0
29 2 24 28 -3 15 -11 123 -18 240 -13 222 -16 230 -58 203z"/>
<path d="M4390 36627 c0 -19 -49 -409 -55 -433 -4 -17 1 -23 23 -27 15 -3 28
-4 30 -2 2 2 34 242 57 428 6 47 6 47 -25 47 -18 0 -30 -5 -30 -13z"/>
<path d="M30163 36452 c-8 -5 -3 -62 18 -217 37 -268 34 -255 64 -255 31 0 31
-8 0 215 -13 99 -27 199 -30 223 -6 42 -22 53 -52 34z"/>
<path d="M4210 35473 c-59 -285 -56 -259 -26 -265 31 -6 27 -15 80 232 47 223
48 234 15 238 -25 3 -25 3 -69 -205z"/>
<path d="M30327 35493 c-21 -5 -22 6 29 -218 58 -251 57 -250 84 -247 13 1 25
4 27 6 2 1 -14 77 -36 167 -21 90 -44 194 -51 232 -8 37 -18 66 -24 66 -6 -1
-19 -3 -29 -6z"/>
<path d="M3958 34511 c-77 -234 -77 -238 -31 -240 6 -1 24 36 41 82 34 94 112
348 112 364 0 6 -11 13 -24 15 -24 5 -27 -2 -98 -221z"/>
<path d="M30578 34553 c-10 -2 -18 -10 -18 -17 0 -23 147 -446 155 -446 2 0
15 5 28 11 l24 11 -47 126 c-26 70 -61 171 -79 225 -18 53 -36 96 -39 96 -4
-1 -15 -3 -24 -6z"/>
<path d="M3680 33777 c-12 -29 -58 -126 -102 -216 -74 -153 -78 -164 -61 -177
10 -7 21 -14 24 -14 12 0 209 404 209 429 0 4 -11 13 -24 19 -23 10 -25 8 -46
-41z"/>
<path d="M30935 33648 c-11 -6 -22 -12 -24 -14 -6 -5 212 -424 221 -424 4 0
17 5 27 12 17 10 11 25 -87 217 -58 113 -108 209 -111 213 -3 4 -15 2 -26 -4z"/>
<path d="M3195 32893 c-27 -43 -87 -129 -132 -191 -46 -62 -83 -117 -83 -122
0 -5 9 -14 21 -20 24 -13 13 -25 132 140 86 119 157 226 157 237 0 6 -32 32
-40 33 -3 0 -27 -35 -55 -77z"/>
<path d="M31410 32795 c-15 -18 -5 -33 146 -230 112 -147 128 -162 149 -145 8
7 15 16 15 21 0 5 -35 54 -78 108 -44 54 -105 135 -137 180 -32 44 -64 81 -71
81 -6 0 -17 -7 -24 -15z"/>
<path d="M2532 32087 l-122 -122 0 -78 0 -77 30 0 30 0 0 69 0 70 80 73 c44
40 94 90 111 111 31 38 31 39 13 58 -19 19 -22 17 -142 -104z"/>
<path d="M32045 32060 c-18 -20 -18 -21 28 -68 l47 -48 0 -162 0 -162 25 0 25
0 0 178 0 178 -53 52 -53 53 -19 -21z"/>
<path d="M2410 31070 l0 -240 30 0 30 0 0 240 0 240 -30 0 -30 0 0 -240z"/>
<path d="M32120 30890 l0 -240 25 0 25 0 0 240 0 240 -25 0 -25 0 0 -240z"/>
<path d="M2410 30100 l0 -240 30 0 30 0 0 240 0 240 -30 0 -30 0 0 -240z"/>
<path d="M32120 29910 l0 -240 25 0 25 0 0 240 0 240 -25 0 -25 0 0 -240z"/>
<path d="M2438 29363 l-28 -4 0 -234 0 -233 30 -4 30 -5 0 244 c0 134 -1 242
-2 242 -2 -1 -15 -4 -30 -6z"/>
<path d="M32120 28940 l0 -240 25 0 25 0 0 240 0 240 -25 0 -25 0 0 -240z"/>
<path d="M2410 28150 l0 -240 30 0 30 0 0 240 0 240 -30 0 -30 0 0 -240z"/>
<path d="M32120 27970 l0 -240 25 0 25 0 0 240 0 240 -25 0 -25 0 0 -240z"/>
<path d="M2410 27180 l0 -240 30 0 30 0 0 240 0 240 -30 0 -30 0 0 -240z"/>
<path d="M32120 26990 l0 -240 25 0 25 0 0 240 0 240 -25 0 -25 0 0 -240z"/>
<path d="M2410 26200 l0 -240 30 0 30 0 0 240 0 240 -30 0 -30 0 0 -240z"/>
<path d="M32120 26020 l0 -240 25 0 25 0 0 240 0 240 -25 0 -25 0 0 -240z"/>
<path d="M2410 25230 l0 -240 30 0 30 0 0 240 0 240 -30 0 -30 0 0 -240z"/>
<path d="M32120 25040 l0 -240 25 0 25 0 0 240 0 240 -25 0 -25 0 0 -240z"/>
<path d="M2414 24491 c-2 -2 -4 -109 -4 -238 l0 -233 30 0 30 0 0 238 0 237
-26 0 c-14 0 -28 -2 -30 -4z"/>
<path d="M32120 24070 l0 -240 25 0 25 0 0 240 0 240 -25 0 -25 0 0 -240z"/>
<path d="M2410 23280 l0 -240 30 0 30 0 0 240 0 240 -30 0 -30 0 0 -240z"/>
<path d="M32120 23100 l0 -240 25 0 25 0 0 240 0 240 -25 0 -25 0 0 -240z"/>
<path d="M2410 22310 l0 -240 30 0 30 0 0 240 0 240 -30 0 -30 0 0 -240z"/>
<path d="M32120 22120 l0 -240 25 0 25 0 0 240 0 240 -25 0 -25 0 0 -240z"/>
<path d="M2412 21333 l3 -238 28 -3 27 -3 0 240 0 241 -30 0 -30 0 2 -237z"/>
<path d="M32120 21150 l0 -240 25 0 25 0 0 240 0 240 -25 0 -25 0 0 -240z"/>
<path d="M2410 20360 l0 -240 30 0 30 0 0 240 0 240 -30 0 -30 0 0 -240z"/>
<path d="M32120 20170 l0 -240 25 0 25 0 0 240 0 240 -25 0 -25 0 0 -240z"/>
<path d="M2417 19623 c-4 -3 -7 -111 -7 -240 l0 -233 30 0 30 0 0 240 0 240
-23 0 c-13 0 -27 -3 -30 -7z"/>
<path d="M32120 19200 l0 -240 25 0 25 0 0 240 0 240 -25 0 -25 0 0 -240z"/>
<path d="M2410 18410 l0 -240 30 0 30 0 0 240 0 240 -30 0 -30 0 0 -240z"/>
<path d="M32120 18230 l0 -240 25 0 25 0 0 240 0 240 -25 0 -25 0 0 -240z"/>
<path d="M2410 17440 l0 -240 30 0 30 0 0 240 0 240 -30 0 -30 0 0 -240z"/>
<path d="M32120 17250 l0 -240 25 0 25 0 0 240 0 240 -25 0 -25 0 0 -240z"/>
<path d="M2412 16463 l3 -238 28 -3 27 -3 0 240 0 241 -30 0 -30 0 2 -237z"/>
<path d="M32120 16280 l0 -240 25 0 25 0 0 240 0 240 -25 0 -25 0 0 -240z"/>
<path d="M2410 15490 l0 -240 30 0 30 0 0 240 0 240 -30 0 -30 0 0 -240z"/>
<path d="M32120 15306 l0 -234 25 -4 25 -5 0 238 0 239 -25 0 -25 0 0 -234z"/>
<path d="M2410 14520 l0 -240 30 0 30 0 0 240 0 240 -30 0 -30 0 0 -240z"/>
<path d="M32120 14330 l0 -240 25 0 25 0 0 240 0 240 -25 0 -25 0 0 -240z"/>
<path d="M2410 13540 l0 -240 30 0 30 0 0 240 0 240 -30 0 -30 0 0 -240z"/>
<path d="M32120 13360 l0 -240 25 0 25 0 0 240 0 240 -25 0 -25 0 0 -240z"/>
<path d="M2410 12570 l0 -240 30 0 30 0 0 240 0 240 -30 0 -30 0 0 -240z"/>
<path d="M32120 12380 l0 -240 25 0 25 0 0 240 0 240 -25 0 -25 0 0 -240z"/>
<path d="M2437 11833 l-27 -4 2 -237 3 -237 28 -3 27 -3 0 245 c0 135 -1 245
-2 245 -2 -1 -15 -4 -31 -6z"/>
<path d="M32120 11410 l0 -240 25 0 25 0 0 240 0 240 -25 0 -25 0 0 -240z"/>
<path d="M2410 10620 l0 -240 30 0 30 0 0 240 0 240 -30 0 -30 0 0 -240z"/>
<path d="M32120 10438 l0 -238 25 0 25 0 0 238 0 237 -25 0 -25 0 0 -237z"/>
<path d="M2410 9650 l0 -240 30 0 30 0 0 240 0 240 -30 0 -30 0 0 -240z"/>
<path d="M32120 9460 l0 -240 25 0 25 0 0 240 0 240 -25 0 -25 0 0 -240z"/>
<path d="M2410 8670 l0 -240 30 0 30 0 0 240 0 240 -30 0 -30 0 0 -240z"/>
<path d="M32120 8490 l0 -240 25 0 25 0 0 240 0 240 -25 0 -25 0 0 -240z"/>
<path d="M2410 7700 l0 -240 30 0 30 0 0 240 0 240 -30 0 -30 0 0 -240z"/>
<path d="M32120 7510 l0 -240 25 0 25 0 0 240 0 240 -25 0 -25 0 0 -240z"/>
<path d="M2417 6963 c-4 -3 -7 -111 -7 -240 l0 -233 30 0 30 0 0 240 0 240
-23 0 c-13 0 -27 -3 -30 -7z"/>
<path d="M32120 6540 l0 -240 25 0 25 0 0 240 0 240 -25 0 -25 0 0 -240z"/>
<path d="M2410 5750 l0 -240 30 0 30 0 0 240 0 240 -30 0 -30 0 0 -240z"/>
<path d="M32120 5570 l0 -240 25 0 25 0 0 240 0 240 -25 0 -25 0 0 -240z"/>
<path d="M2410 4780 l0 -240 30 0 30 0 0 240 0 240 -30 0 -30 0 0 -240z"/>
<path d="M32120 4590 l0 -240 25 0 25 0 0 240 0 240 -25 0 -25 0 0 -240z"/>
<path d="M2410 3800 l0 -240 30 0 30 0 0 240 0 240 -30 0 -30 0 0 -240z"/>
<path d="M32118 3678 l-3 -183 -27 -3 c-22 -3 -28 -9 -28 -28 0 -22 3 -24 55
-24 l55 0 0 210 0 210 -25 0 -25 0 -2 -182z"/>
<path d="M22518 3493 l-198 -3 0 -25 0 -25 173 0 c94 0 202 -3 240 -7 l67 -6
0 37 0 36 -42 -2 c-24 -2 -132 -4 -240 -5z"/>
<path d="M2840 3465 l0 -25 240 0 240 0 0 25 0 25 -240 0 -240 0 0 -25z"/>
<path d="M3810 3465 l0 -25 240 0 240 0 0 25 0 25 -240 0 -240 0 0 -25z"/>
<path d="M4790 3465 l0 -25 240 0 240 0 0 25 0 25 -240 0 -240 0 0 -25z"/>
<path d="M5760 3465 l0 -25 240 0 240 0 0 25 0 25 -240 0 -240 0 0 -25z"/>
<path d="M6730 3465 l0 -25 240 0 240 0 0 25 0 25 -240 0 -240 0 0 -25z"/>
<path d="M7710 3465 l0 -25 240 0 240 0 0 25 0 25 -240 0 -240 0 0 -25z"/>
<path d="M8680 3465 l0 -25 240 0 240 0 0 25 0 25 -240 0 -240 0 0 -25z"/>
<path d="M9660 3465 l0 -25 240 0 240 0 0 25 0 25 -240 0 -240 0 0 -25z"/>
<path d="M10630 3465 l0 -25 240 0 240 0 0 25 0 25 -240 0 -240 0 0 -25z"/>
<path d="M11600 3465 l0 -25 240 0 240 0 0 25 0 25 -240 0 -240 0 0 -25z"/>
<path d="M12580 3465 l0 -25 240 0 240 0 0 25 0 25 -240 0 -240 0 0 -25z"/>
<path d="M13550 3465 l0 -25 240 0 240 0 0 25 0 25 -240 0 -240 0 0 -25z"/>
<path d="M14530 3465 l0 -25 240 0 240 0 0 25 0 25 -240 0 -240 0 0 -25z"/>
<path d="M15500 3465 l0 -25 240 0 240 0 0 25 0 25 -240 0 -240 0 0 -25z"/>
<path d="M16470 3465 l0 -25 240 0 240 0 0 25 0 25 -240 0 -240 0 0 -25z"/>
<path d="M17450 3465 l0 -25 240 0 240 0 0 25 0 25 -240 0 -240 0 0 -25z"/>
<path d="M18420 3465 l0 -25 240 0 240 0 0 25 0 25 -240 0 -240 0 0 -25z"/>
<path d="M19400 3465 l0 -25 240 0 240 0 0 25 0 25 -240 0 -240 0 0 -25z"/>
<path d="M20370 3465 l0 -25 240 0 240 0 0 25 0 25 -240 0 -240 0 0 -25z"/>
<path d="M21340 3465 l0 -25 240 0 240 0 0 25 0 25 -240 0 -240 0 0 -25z"/>
<path d="M23290 3465 l0 -25 240 0 240 0 0 25 0 25 -240 0 -240 0 0 -25z"/>
<path d="M24270 3465 l0 -25 240 0 240 0 0 25 0 25 -240 0 -240 0 0 -25z"/>
<path d="M25240 3465 l0 -25 240 0 240 0 0 25 0 25 -240 0 -240 0 0 -25z"/>
<path d="M26210 3465 l0 -25 240 0 240 0 0 25 0 25 -240 0 -240 0 0 -25z"/>
<path d="M27190 3465 l0 -25 240 0 240 0 0 25 0 25 -240 0 -240 0 0 -25z"/>
<path d="M28160 3465 l0 -25 240 0 240 0 0 25 0 25 -240 0 -240 0 0 -25z"/>
<path d="M29140 3465 l0 -25 240 0 240 0 0 25 0 25 -240 0 -240 0 0 -25z"/>
<path d="M30110 3465 l0 -25 240 0 240 0 0 25 0 25 -240 0 -240 0 0 -25z"/>
<path d="M31080 3465 l0 -25 240 0 240 0 0 25 0 25 -240 0 -240 0 0 -25z"/>
</g>
</svg>
